<?xml version="1.0" encoding="UTF-8"?>
<svg id="_레이어_1" data-name="레이어 1" xmlns="http://www.w3.org/2000/svg" xmlns:xlink="http://www.w3.org/1999/xlink" viewBox="0 0 900 900">
  <defs>
    <style>
      .cls-1 {
        fill: url(#_무제_그라디언트_3);
      }

      .cls-1, .cls-2 {
        stroke-width: 0px;
      }

      .cls-2 {
        fill: url(#_무제_그라디언트_2);
      }
    </style>
    <linearGradient id="_무제_그라디언트_3" data-name="무제 그라디언트 3" x1="989.03" y1="1232.26" x2="81.62" y2="2058.47" gradientTransform="translate(0 1982) scale(1 -1)" gradientUnits="userSpaceOnUse">
      <stop offset="0" stop-color="#f187fb"/>
      <stop offset="1" stop-color="#439cfb"/>
    </linearGradient>
    <linearGradient id="_무제_그라디언트_2" data-name="무제 그라디언트 2" x1="-127.17" y1="1853.1" x2="767.92" y2="958.01" gradientTransform="translate(0 1982) scale(1 -1)" gradientUnits="userSpaceOnUse">
      <stop offset="0" stop-color="#439cfb"/>
      <stop offset=".69" stop-color="#bb8efb"/>
      <stop offset="1" stop-color="#f187fb"/>
    </linearGradient>
  </defs>
  <path class="cls-1" d="m850,0c-27.61,0-50,22.39-50,50v700c0,27.61-22.39,50-50,50h0c-27.61,0-50-22.39-50-50V200h0C700,89.54,610.46,0,500,0h-100c-110.46,0-200,89.54-200,200h0v450c0,27.61,22.39,50,50,50h0c27.61,0,50-22.39,50-50V200h0c0-55.23,44.77-100,100-100h100c55.23,0,100,44.77,100,100h0v550.33c0,82.66,67.01,149.67,149.67,149.67h.11c82.96,0,150.22-67.26,150.22-150.22V50c0-27.61-22.39-50-50-50h0Z"/>
  <path class="cls-2" d="m400,300v400h0c0,55.23-44.77,100-100,100h-100c-55.23,0-100-44.77-100-100h0V50C100,22.39,77.61,0,50,0h0C22.39,0,0,22.39,0,50v650h0c0,110.46,89.54,200,200,200h100c110.46,0,200-89.54,200-200h0V250c0-27.61-22.39-50-50-50h0c-27.61,0-50,22.39-50,50v50Z"/>
</svg>